# Blender v2.83.0 OBJ File: 'tree.blend'
# www.blender.org
mtllib tree.mtl
o aa_Cone
v 0.014489 0.411294 -0.394649
v 0.088680 0.508682 -0.345404
v 0.181357 0.652701 -0.258484
v 0.254681 0.410823 -0.322458
v 0.309070 0.410176 -0.261295
v 0.266235 0.786460 -0.131197
v 0.389612 0.410172 -0.133469
v 0.369451 0.585162 -0.037088
v 0.437304 0.412813 0.025519
v 0.417401 0.435051 0.126106
v 0.369171 0.516273 0.179665
v 0.313459 0.610233 0.241833
v 0.293285 0.479858 0.313416
v 0.240342 0.444619 0.371099
v 0.128705 0.836162 0.296280
v 0.074418 0.756218 0.336725
v 0.014230 0.410172 0.450534
v -0.059656 0.532323 0.405015
v -0.101547 0.791581 0.308153
v -0.211181 0.448214 0.370197
v -0.261998 0.492348 0.310727
v -0.284976 0.609422 0.240898
v -0.334108 0.539402 0.176734
v 0.014230 1.793202 0.033568
v -0.388569 0.436783 0.128177
v -0.409444 0.413072 0.024729
v -0.335381 0.603604 -0.035517
v -0.361032 0.410172 -0.133561
v -0.237695 0.785950 -0.131271
v -0.280629 0.410223 -0.261575
v -0.225752 0.410502 -0.320321
v -0.097584 0.602725 -0.323454
v -0.059198 0.525527 -0.340229
vt 0.250000 0.490000
vt 0.250000 0.250000
vt 0.296822 0.485388
vt 0.341844 0.471731
vt 0.383337 0.449553
vt 0.419706 0.419706
vt 0.449553 0.383337
vt 0.471731 0.341844
vt 0.485388 0.296822
vt 0.490000 0.250000
vt 0.485388 0.203178
vt 0.471731 0.158156
vt 0.449553 0.116663
vt 0.419706 0.080294
vt 0.383337 0.050447
vt 0.341844 0.028269
vt 0.296822 0.014612
vt 0.250000 0.010000
vt 0.203178 0.014612
vt 0.158156 0.028269
vt 0.116663 0.050447
vt 0.080294 0.080294
vt 0.050447 0.116663
vt 0.028269 0.158156
vt 0.014611 0.203179
vt 0.010000 0.250000
vt 0.014612 0.296822
vt 0.028269 0.341844
vt 0.050447 0.383337
vt 0.080295 0.419706
vt 0.116663 0.449553
vt 0.158156 0.471731
vt 0.203179 0.485389
vt 0.750000 0.490000
vt 0.796822 0.485388
vt 0.841844 0.471731
vt 0.883337 0.449553
vt 0.919706 0.419706
vt 0.949553 0.383337
vt 0.971731 0.341844
vt 0.985388 0.296822
vt 0.990000 0.250000
vt 0.985388 0.203178
vt 0.971731 0.158156
vt 0.949553 0.116663
vt 0.919706 0.080294
vt 0.883337 0.050447
vt 0.841844 0.028269
vt 0.796822 0.014612
vt 0.750000 0.010000
vt 0.703178 0.014612
vt 0.658156 0.028269
vt 0.616663 0.050447
vt 0.580294 0.080294
vt 0.550447 0.116663
vt 0.528269 0.158156
vt 0.514611 0.203179
vt 0.510000 0.250000
vt 0.514612 0.296822
vt 0.528269 0.341844
vt 0.550447 0.383337
vt 0.580295 0.419706
vt 0.616663 0.449553
vt 0.658156 0.471731
vt 0.703179 0.485389
vn 0.2383 0.2875 -0.9277
vn 0.3863 0.2815 -0.8784
vn -0.0521 0.2406 -0.9692
vn 0.7171 0.2882 -0.6346
vn 0.7668 0.2860 -0.5747
vn 0.8602 0.2846 -0.4233
vn 0.9012 0.2841 -0.3274
vn 0.9323 0.2870 -0.2203
vn 0.9490 0.2901 0.1236
vn 0.8867 0.2879 0.3619
vn 0.8874 0.2879 0.3602
vn 0.6464 0.2879 0.7066
vn 0.6119 0.2871 0.7370
vn 0.4312 0.2864 0.8556
vn 0.2668 0.2847 0.9208
vn 0.1491 0.2854 0.9467
vn -0.1119 0.2868 0.9514
vn -0.3238 0.2848 0.9023
vn -0.3997 0.2850 0.8712
vn -0.6126 0.2870 0.7364
vn -0.6553 0.2879 0.6984
vn -0.8857 0.2877 0.3643
vn -0.8797 0.2876 0.3787
vn -0.9487 0.2904 0.1249
vn -0.9287 0.2866 -0.2353
vn -0.9023 0.2840 -0.3243
vn -0.8589 0.2845 -0.4258
vn -0.7697 0.2859 -0.5708
vn -0.7003 0.2886 -0.6528
vn -0.4618 0.2943 -0.8367
vn 0.1331 0.2732 -0.9527
vn -0.2395 0.2873 -0.9274
vn 0.0083 -0.9959 0.0906
usemtl Material.002
s off
f 1/1/1 24/2/1 2/3/1
f 2/3/2 24/2/2 3/4/2
f 3/4/3 24/2/3 4/5/3
f 4/5/4 24/2/4 5/6/4
f 5/6/5 24/2/5 6/7/5
f 6/7/6 24/2/6 7/8/6
f 7/8/7 24/2/7 8/9/7
f 8/9/8 24/2/8 9/10/8
f 9/10/9 24/2/9 10/11/9
f 10/11/10 24/2/10 11/12/10
f 11/12/11 24/2/11 12/13/11
f 12/13/12 24/2/12 13/14/12
f 13/14/13 24/2/13 14/15/13
f 14/15/14 24/2/14 15/16/14
f 15/16/15 24/2/15 16/17/15
f 16/17/16 24/2/16 17/18/16
f 17/18/17 24/2/17 18/19/17
f 18/19/18 24/2/18 19/20/18
f 19/20/19 24/2/19 20/21/19
f 20/21/20 24/2/20 21/22/20
f 21/22/21 24/2/21 22/23/21
f 22/23/22 24/2/22 23/24/22
f 23/24/23 24/2/23 25/25/23
f 25/25/24 24/2/24 26/26/24
f 26/26/25 24/2/25 27/27/25
f 27/27/26 24/2/26 28/28/26
f 28/28/27 24/2/27 29/29/27
f 29/29/28 24/2/28 30/30/28
f 30/30/29 24/2/29 31/31/29
f 31/31/30 24/2/30 32/32/30
f 32/32/31 24/2/31 33/33/31
f 33/33/32 24/2/32 1/1/32
f 1/34/33 2/35/33 3/36/33 4/37/33 5/38/33 6/39/33 7/40/33 8/41/33 9/42/33 10/43/33 11/44/33 12/45/33 13/46/33 14/47/33 15/48/33 16/49/33 17/50/33 18/51/33 19/52/33 20/53/33 21/54/33 22/55/33 23/56/33 25/57/33 26/58/33 27/59/33 28/60/33 29/61/33 30/62/33 31/63/33 32/64/33 33/65/33
o Cylinder
v 0.013349 0.024761 -0.025501
v 0.026123 0.980479 0.007745
v 0.024482 0.026590 -0.024927
v 0.035893 0.980479 0.008707
v 0.033643 0.002573 -0.021990
v 0.045288 0.980479 0.011557
v 0.042363 0.022169 -0.017076
v 0.053946 0.980479 0.016185
v 0.049946 -0.002190 -0.011850
v 0.061536 0.980479 0.022413
v 0.057202 -0.001984 -0.003605
v 0.067764 0.980479 0.030002
v 0.062826 -0.001603 0.005628
v 0.072392 0.980479 0.038661
v 0.064928 -0.000717 0.015925
v 0.075242 0.980479 0.048055
v 0.065907 0.000239 0.026266
v 0.076204 0.980479 0.057826
v 0.065382 -0.002442 0.035409
v 0.075242 0.980479 0.067596
v 0.061433 0.000073 0.046246
v 0.072392 0.980479 0.076991
v 0.057022 0.000537 0.053632
v 0.067764 0.980479 0.085649
v 0.051535 -0.001302 0.061306
v 0.061536 0.980479 0.093238
v 0.041386 -0.002161 0.068698
v 0.053946 0.980479 0.099466
v 0.033901 -0.003523 0.074919
v 0.045288 0.980479 0.104094
v 0.022259 -0.004370 0.077933
v 0.035893 0.980479 0.106944
v 0.015155 -0.003237 0.078460
v 0.026123 0.980479 0.107907
v 0.006034 -0.001235 0.075762
v 0.016353 0.980479 0.106944
v -0.005865 0.000183 0.073725
v 0.006958 0.980479 0.104094
v -0.014615 0.000577 0.068214
v -0.001700 0.980479 0.099466
v -0.021789 0.023256 0.062901
v -0.009290 0.980479 0.093238
v -0.029078 -0.000520 0.054810
v -0.015518 0.980479 0.085649
v -0.033833 0.000175 0.046368
v -0.020146 0.980479 0.076991
v -0.037903 0.023578 0.036892
v -0.022996 0.980479 0.067596
v -0.036671 0.025351 0.025775
v -0.023958 0.980479 0.057826
v -0.039173 0.002137 0.018131
v -0.022996 0.980479 0.048055
v -0.032854 0.004946 0.006607
v -0.020146 0.980479 0.038661
v -0.028841 0.003656 -0.001795
v -0.015518 0.980479 0.030002
v -0.022444 0.004244 -0.009423
v -0.009289 0.980479 0.022413
v -0.016676 0.001666 -0.014859
v -0.001700 0.980479 0.016185
v -0.006822 0.002891 -0.020372
v 0.006958 0.980479 0.011557
v 0.002673 0.001387 -0.023384
v 0.016353 0.980479 0.008707
vt 1.000000 0.500000
vt 1.000000 1.000000
vt 0.968750 1.000000
vt 0.968750 0.500000
vt 0.937500 1.000000
vt 0.937500 0.500000
vt 0.906250 1.000000
vt 0.906250 0.500000
vt 0.875000 1.000000
vt 0.875000 0.500000
vt 0.843750 1.000000
vt 0.843750 0.500000
vt 0.812500 1.000000
vt 0.812500 0.500000
vt 0.781250 1.000000
vt 0.781250 0.500000
vt 0.750000 1.000000
vt 0.750000 0.500000
vt 0.718750 1.000000
vt 0.718750 0.500000
vt 0.687500 1.000000
vt 0.687500 0.500000
vt 0.656250 1.000000
vt 0.656250 0.500000
vt 0.625000 1.000000
vt 0.625000 0.500000
vt 0.593750 1.000000
vt 0.593750 0.500000
vt 0.562500 1.000000
vt 0.562500 0.500000
vt 0.531250 1.000000
vt 0.531250 0.500000
vt 0.500000 1.000000
vt 0.500000 0.500000
vt 0.468750 1.000000
vt 0.468750 0.500000
vt 0.437500 1.000000
vt 0.437500 0.500000
vt 0.406250 1.000000
vt 0.406250 0.500000
vt 0.375000 1.000000
vt 0.375000 0.500000
vt 0.343750 1.000000
vt 0.343750 0.500000
vt 0.312500 1.000000
vt 0.312500 0.500000
vt 0.281250 1.000000
vt 0.281250 0.500000
vt 0.250000 1.000000
vt 0.250000 0.500000
vt 0.218750 1.000000
vt 0.218750 0.500000
vt 0.187500 1.000000
vt 0.187500 0.500000
vt 0.156250 1.000000
vt 0.156250 0.500000
vt 0.125000 1.000000
vt 0.125000 0.500000
vt 0.093750 1.000000
vt 0.093750 0.500000
vt 0.062500 1.000000
vt 0.062500 0.500000
vt 0.296822 0.485388
vt 0.250000 0.490000
vt 0.203179 0.485389
vt 0.158156 0.471731
vt 0.116663 0.449553
vt 0.080295 0.419706
vt 0.050447 0.383337
vt 0.028269 0.341844
vt 0.014612 0.296822
vt 0.010000 0.250000
vt 0.014611 0.203179
vt 0.028269 0.158156
vt 0.050447 0.116663
vt 0.080294 0.080294
vt 0.116663 0.050447
vt 0.158156 0.028269
vt 0.203178 0.014612
vt 0.250000 0.010000
vt 0.296822 0.014612
vt 0.341844 0.028269
vt 0.383337 0.050447
vt 0.419706 0.080294
vt 0.449553 0.116663
vt 0.471731 0.158156
vt 0.485388 0.203178
vt 0.490000 0.250000
vt 0.485388 0.296822
vt 0.471731 0.341844
vt 0.449553 0.383337
vt 0.419706 0.419706
vt 0.383337 0.449553
vt 0.341844 0.471731
vt 0.031250 1.000000
vt 0.031250 0.500000
vt 0.000000 1.000000
vt 0.000000 0.500000
vt 0.750000 0.490000
vt 0.796822 0.485388
vt 0.841844 0.471731
vt 0.883337 0.449553
vt 0.919706 0.419706
vt 0.949553 0.383337
vt 0.971731 0.341844
vt 0.985388 0.296822
vt 0.990000 0.250000
vt 0.985388 0.203178
vt 0.971731 0.158156
vt 0.949553 0.116663
vt 0.919706 0.080294
vt 0.883337 0.050447
vt 0.841844 0.028269
vt 0.796822 0.014612
vt 0.750000 0.010000
vt 0.703178 0.014612
vt 0.658156 0.028269
vt 0.616663 0.050447
vt 0.580294 0.080294
vt 0.550447 0.116663
vt 0.528269 0.158156
vt 0.514611 0.203179
vt 0.510000 0.250000
vt 0.514612 0.296822
vt 0.528269 0.341844
vt 0.550447 0.383337
vt 0.580295 0.419706
vt 0.616663 0.449553
vt 0.658156 0.471731
vt 0.703179 0.485389
vn 0.0703 0.0340 -0.9969
vn 0.3314 0.0288 -0.9430
vn 0.4592 0.0251 -0.8880
vn 0.6224 0.0198 -0.7824
vn 0.7612 0.0138 -0.6484
vn 0.8675 0.0080 -0.4973
vn 0.9698 -0.0017 -0.2438
vn 0.9954 -0.0074 -0.0957
vn 0.9970 -0.0127 0.0766
vn 0.9470 -0.0203 0.3207
vn 0.8707 -0.0254 0.4912
vn 0.7946 -0.0282 0.6065
vn 0.6097 -0.0323 0.7920
vn 0.5594 -0.0321 0.8283
vn 0.2696 -0.0319 0.9625
vn 0.0858 -0.0306 0.9958
vn -0.1930 -0.0282 0.9808
vn -0.2254 -0.0279 0.9739
vn -0.5035 -0.0205 0.8637
vn -0.6313 -0.0164 0.7754
vn -0.7492 -0.0108 0.6623
vn -0.8767 -0.0029 0.4810
vn -0.9377 0.0028 0.3474
vn -0.9998 0.0148 -0.0116
vn -0.9974 0.0126 0.0713
vn -0.9169 0.0262 -0.3984
vn -0.8910 0.0267 -0.4533
vn -0.7698 0.0312 -0.6375
vn -0.6537 0.0337 -0.7560
vn -0.4819 0.0353 -0.8755
vn 0.0000 1.0000 -0.0000
vn -0.2936 0.0354 -0.9553
vn -0.1887 0.0357 -0.9814
vn -0.0897 -0.9919 -0.0905
usemtl Material.001
s off
f 34/66/34 35/67/34 37/68/34 36/69/34
f 36/69/35 37/68/35 39/70/35 38/71/35
f 38/71/36 39/70/36 41/72/36 40/73/36
f 40/73/37 41/72/37 43/74/37 42/75/37
f 42/75/38 43/74/38 45/76/38 44/77/38
f 44/77/39 45/76/39 47/78/39 46/79/39
f 46/79/40 47/78/40 49/80/40 48/81/40
f 48/81/41 49/80/41 51/82/41 50/83/41
f 50/83/42 51/82/42 53/84/42 52/85/42
f 52/85/43 53/84/43 55/86/43 54/87/43
f 54/87/44 55/86/44 57/88/44 56/89/44
f 56/89/45 57/88/45 59/90/45 58/91/45
f 58/91/46 59/90/46 61/92/46 60/93/46
f 60/93/47 61/92/47 63/94/47 62/95/47
f 62/95/48 63/94/48 65/96/48 64/97/48
f 64/97/49 65/96/49 67/98/49 66/99/49
f 66/99/50 67/98/50 69/100/50 68/101/50
f 68/101/51 69/100/51 71/102/51 70/103/51
f 70/103/52 71/102/52 73/104/52 72/105/52
f 72/105/53 73/104/53 75/106/53 74/107/53
f 74/107/54 75/106/54 77/108/54 76/109/54
f 76/109/55 77/108/55 79/110/55 78/111/55
f 78/111/56 79/110/56 81/112/56 80/113/56
f 80/113/57 81/112/57 83/114/57 82/115/57
f 82/115/58 83/114/58 85/116/58 84/117/58
f 84/117/59 85/116/59 87/118/59 86/119/59
f 86/119/60 87/118/60 89/120/60 88/121/60
f 88/121/61 89/120/61 91/122/61 90/123/61
f 90/123/62 91/122/62 93/124/62 92/125/62
f 92/125/63 93/124/63 95/126/63 94/127/63
f 37/128/64 35/129/64 97/130/64 95/131/64 93/132/64 91/133/64 89/134/64 87/135/64 85/136/64 83/137/64 81/138/64 79/139/64 77/140/64 75/141/64 73/142/64 71/143/64 69/144/64 67/145/64 65/146/64 63/147/64 61/148/64 59/149/64 57/150/64 55/151/64 53/152/64 51/153/64 49/154/64 47/155/64 45/156/64 43/157/64 41/158/64 39/159/64
f 94/127/65 95/126/65 97/160/65 96/161/65
f 96/161/66 97/160/66 35/162/66 34/163/66
f 34/164/67 36/165/67 38/166/67 40/167/67 42/168/67 44/169/67 46/170/67 48/171/67 50/172/67 52/173/67 54/174/67 56/175/67 58/176/67 60/177/67 62/178/67 64/179/67 66/180/67 68/181/67 70/182/67 72/183/67 74/184/67 76/185/67 78/186/67 80/187/67 82/188/67 84/189/67 86/190/67 88/191/67 90/192/67 92/193/67 94/194/67 96/195/67
