# Blender v2.79 (sub 0) OBJ File: ''
# www.blender.org
o Cube

v 1.289378 -1.284843 -1.504764

v 1.289378 -1.284843 0.495236

v -0.710623 -1.284843 0.495235

v -0.710622 -1.284843 -1.504765

v 1.289378 0.715157 -1.504764

v 1.289377 0.715157 0.495236

v -0.710623 0.715157 0.495235

v -0.710622 0.715157 -1.504764

vt 0.990303 0.206915

vt 0.199022 0.992950

vt 0.202218 0.204865

vt 0.990303 0.206915

vt 0.199022 0.992950

vt 0.202218 0.204865

vt 0.990303 0.206915

vt 0.199022 0.992950

vt 0.990303 0.206915

vt 0.199022 0.992950

vt 0.202218 0.204865

vt 0.202218 0.204865

vt 0.987106 0.995000

vt 0.990303 0.206915

vt 0.199022 0.992950

vt 0.987106 0.995000

vt 0.987106 0.995000

vt 0.987106 0.995000

vt 0.990303 0.206915

vt 0.987106 0.995000

vn 0.0000 -1.0000 0.0000

vn 0.0000 1.0000 0.0000

vn 1.0000 -0.0000 0.0000

vn -0.0000 -0.0000 1.0000

vn -1.0000 -0.0000 -0.0000

vn 0.0000 0.0000 -1.0000

s off

f 2/1/1 4/2/1 1/3/1

f 8/4/2 6/5/2 5/6/2

f 5/7/3 2/8/3 1/3/3

f 6/9/4 3/10/4 2/11/4

f 3/12/5 8/13/5 4/2/5

f 1/14/6 8/15/6 5/6/6

f 2/1/1 3/16/1 4/2/1

f 8/4/2 7/17/2 6/5/2

f 5/7/3 6/18/3 2/8/3

f 6/9/4 7/17/4 3/10/4

f 3/12/5 7/19/5 8/13/5

f 1/14/6 4/20/6 8/15/6

