# Blender v2.79 (sub 0) OBJ File: ''
# www.blender.org
o Cube.002_Cube.003
v -11.888277 -2.260769 -13.288373
v -11.888277 13.527277 -13.288373
v -11.888277 -2.260769 -29.076420
v -11.888277 13.527277 -29.076420
v 3.899769 -2.260769 -13.288373
v 3.899769 13.527277 -13.288373
v 3.899769 -2.260769 -29.076420
v 3.899769 13.527277 -29.076420
vn -1.0000 0.0000 0.0000
vn 0.0000 0.0000 -1.0000
vn 1.0000 0.0000 0.0000
vn 0.0000 0.0000 1.0000
vn 0.0000 -1.0000 0.0000
vn 0.0000 1.0000 0.0000
s off
f 2//1 3//1 1//1
f 4//2 7//2 3//2
f 8//3 5//3 7//3
f 6//4 1//4 5//4
f 7//5 1//5 3//5
f 4//6 6//6 8//6
f 2//1 4//1 3//1
f 4//2 8//2 7//2
f 8//3 6//3 5//3
f 6//4 2//4 1//4
f 7//5 5//5 1//5
f 4//6 2//6 6//6
o Cube.001_Cube.002
v -9.584297 9.884558 -2.375897
v -9.584297 -24.006182 -2.375897
v -9.584297 9.884558 31.514843
v -9.584297 -24.006182 31.514843
v -43.475037 9.884558 -2.375897
v -43.475037 -24.006182 -2.375897
v -43.475037 9.884558 31.514843
v -43.475037 -24.006182 31.514843
vn 1.0000 0.0000 0.0000
vn 0.0000 0.0000 1.0000
vn -1.0000 0.0000 0.0000
vn 0.0000 0.0000 -1.0000
vn 0.0000 1.0000 0.0000
vn 0.0000 -1.0000 0.0000
s off
f 10//7 9//7 11//7
f 12//8 11//8 15//8
f 16//9 15//9 13//9
f 14//10 13//10 9//10
f 15//11 11//11 9//11
f 12//12 16//12 14//12
f 10//7 11//7 12//7
f 12//8 15//8 16//8
f 16//9 13//9 14//9
f 14//10 9//10 10//10
f 15//11 9//11 13//11
f 12//12 14//12 10//12
o Cube_Cube.001
v 1.994236 -19.493723 22.370977
v 1.994236 4.979952 22.370977
v 1.994236 -19.493723 -2.102697
v 1.994236 4.979952 -2.102697
v 26.467911 -19.493723 22.370977
v 26.467911 4.979952 22.370977
v 26.467911 -19.493723 -2.102697
v 26.467911 4.979952 -2.102697
vn -1.0000 0.0000 0.0000
vn 0.0000 0.0000 -1.0000
vn 1.0000 0.0000 0.0000
vn 0.0000 0.0000 1.0000
vn 0.0000 -1.0000 0.0000
vn 0.0000 1.0000 0.0000
s off
f 18//13 19//13 17//13
f 20//14 23//14 19//14
f 24//15 21//15 23//15
f 22//16 17//16 21//16
f 23//17 17//17 19//17
f 20//18 22//18 24//18
f 18//13 20//13 19//13
f 20//14 24//14 23//14
f 24//15 22//15 21//15
f 22//16 18//16 17//16
f 23//17 21//17 17//17
f 20//18 18//18 22//18
o Plane
v -154.691833 0.000000 154.691833
v 154.691833 0.000000 154.691833
v -154.691833 0.000000 -154.691833
v 154.691833 0.000000 -154.691833
vt 0.999900 0.000100
vt 0.000100 0.999900
vt 0.000100 0.000100
vt 0.999900 0.999900
vn 0.0000 1.0000 0.0000
s off
f 26/1/19 27/2/19 25/3/19
f 26/1/19 28/4/19 27/2/19
