# Blender v2.79 (sub 0) OBJ File: ''
# www.blender.org
o Plane
v -138.001785 -7.008955 137.736740
v 136.916092 -7.008955 137.736740
v -138.001785 -7.008955 -137.181137
v 136.916092 -7.008955 -137.181137
v -138.001785 -7.008955 137.736740
v 136.916092 -7.008955 137.736740
v -138.001785 -7.008955 -137.181137
v 136.916092 -7.008955 -137.181137
v -138.001785 34.112720 137.736740
v 136.916092 34.112720 137.736740
v -138.001785 34.112720 -137.181137
v 136.916092 34.112720 -137.181137
v -138.001785 -41.637047 137.736740
v 136.916092 -41.637047 137.736740
v -138.001785 -41.637047 -137.181137
v 136.916092 -41.637047 -137.181137
vt 1.000000 0.000000
vt 0.000000 1.000000
vt 0.000000 0.000000
vt 1.000000 0.000000
vt 0.000000 1.000000
vt 0.000000 0.000000
vt 0.000000 0.000000
vt 1.000000 1.000000
vt 0.000000 1.000000
vt 1.000000 1.000000
vt 0.000000 1.000000
vt 0.000000 0.000000
vt 1.000000 1.000000
vt 0.000000 1.000000
vt 0.000000 0.000000
vt 1.000000 1.000000
vt 0.000000 1.000000
vt 1.000000 1.000000
vt 0.000000 1.000000
vt 0.000000 1.000000
vt 1.000000 0.000000
vt 0.000000 1.000000
vt 0.000000 0.000000
vt 1.000000 0.000000
vt 0.000000 0.000000
vt 1.000000 0.000000
vt 0.000000 1.000000
vt 0.000000 0.000000
vt 1.000000 0.000000
vt 0.000000 1.000000
vt 0.000000 0.000000
vt 1.000000 1.000000
vt 1.000000 1.000000
vt 0.000000 1.000000
vt 1.000000 1.000000
vt 0.000000 1.000000
vt 1.000000 1.000000
vt 1.000000 0.000000
vt 1.000000 0.000000
vt 1.000000 0.000000
vt 1.000000 1.000000
vt 1.000000 1.000000
vt 1.000000 1.000000
vt 1.000000 1.000000
vn 0.0000 -1.0000 0.0000
vn 0.0000 0.0000 -1.0000
vn 0.0000 0.0000 1.0000
vn -1.0000 0.0000 0.0000
vn 1.0000 0.0000 0.0000
vn 0.0000 1.0000 0.0000
s off
f 3/1/1 2/2/1 1/3/1
f 7/4/2 12/5/2 8/6/2
f 4/7/3 7/8/3 8/9/3
f 1/3/3 6/10/3 5/11/3
f 2/12/3 8/13/3 6/14/3
f 3/15/3 5/16/3 7/17/3
f 12/18/4 14/19/4 10/20/4
f 6/21/3 9/22/3 5/23/3
f 8/24/5 10/20/5 6/25/5
f 5/26/4 11/27/4 7/28/4
f 14/29/6 15/30/6 13/31/6
f 9/32/5 15/30/5 11/27/5
f 11/33/3 16/34/3 12/5/3
f 10/35/2 13/36/2 9/22/2
f 3/1/1 4/37/1 2/2/1
f 7/4/2 11/33/2 12/5/2
f 4/7/3 3/1/3 7/8/3
f 1/3/3 2/38/3 6/10/3
f 2/12/3 4/39/3 8/13/3
f 3/15/3 1/40/3 5/16/3
f 12/18/4 16/41/4 14/19/4
f 6/21/3 10/35/3 9/22/3
f 8/24/5 12/18/5 10/20/5
f 5/26/4 9/32/4 11/27/4
f 14/29/6 16/41/6 15/30/6
f 9/32/5 13/42/5 15/30/5
f 11/33/3 15/43/3 16/34/3
f 10/35/2 14/44/2 13/36/2
